<svg xmlns="http://www.w3.org/2000/svg" viewBox="0 0 2267 360"><path fill="#0e1117" d="M0 0h2267v360H0z"/><g fill="#bec1c6"><path d="M54 32c-19 6-28 27-20 44q5 12 14 17l3 3v-7l2-13q2-6 1-8-3-7 2-13 11-8 21 6c5 9 6 12 10 28 4 23 8 28 28 41l18 14 4 4-2-5-10-18c-13-22-14-26-19-42Q95 41 75 33q-10-3-21-1M108 32l-8 2-8 2 5 8 6 9h5c7-2 22-1 28 2q12 5 25 30l23 45 25 47c10 19 10 21 9 25q-2 3 3 13l5 12c1 2 13-20 15-27 2-4 1-5-5-18L169 56a59 59 0 0 0-50-25zM280 34q-10 6-16 17-4 6 0 4c11-5 26-6 34-3l6 6a2602 2602 0 0 1 70 130c1 1 12-19 12-22L323 47l-9-10c-10-6-24-8-34-3M324 38c5 5 10 14 26 43l41 76 11-21a901 901 0 0 0-52-97q-9-8-24-8h-9zM486 33q-15 4-27 17c-7 6-10 12-28 47q-50 96-51 101 0 7 23 19l28 15 8-17q-1-3-18-10l-17-9c-1-1 56-109 65-124q12-22 37-20 22 2 32 21l2 6 7-3c12-7 12-7 8-15a60 60 0 0 0-69-28"/><path d="m546 33-6 2 4 4 7 7q3 4 8 4 10 3 10 11 1 9-20 21c-40 24-50 33-59 57l-4 8 5-4a989 989 0 0 1 88-56c23-21 10-56-21-56zM277 57c-7 1-17 6-21 11l-20 35-17 32 6 11 6 11 7-13 44-81q7-10-5-6M292 59l-47 89-10 19 6 11 6 11 55-105 5-10-6-8q-7-11-9-7M111 60c-3 1-3 2 0 12l2 8h5q8-1 15 14l26 51 23 43 3-7 6-11 3-5-10-20c-40-76-41-77-50-82-6-3-17-4-23-3"/><path d="M492 61c-12 4-13 5-58 92l-20 39 14 7 15 7-3-7-3-6 11-22 29-54 19-35q3-2 7-2 5-1 8 4l2 9v3l11-7 9-5-1-5c-5-14-25-23-40-18M65 64c-6 10-9 31-5 44 5 17 13 27 38 44 27 18 27 18 45 52l11 20q1 1 5-4l9-7 3-2-8-16c-17-31-24-39-50-58-19-13-24-17-28-24-4-6-7-17-7-24 0-6-5-20-8-24l-3-4zM547 115c-48 30-65 43-74 58l-50 91c-1 4 21-8 29-15 6-6 9-11 24-38 9-18 19-35 22-38l24-18c24-16 29-21 36-37l6-12z"/><path d="M93 171c20 40 46 88 47 88l3-9 4-13c2-5 2-5-1-11l-14-27a91 91 0 0 0-37-41l-14-10zM535 154l-18 12c-13 10-17 16-35 50l-17 30c-8 10-34 26-53 31q-3 1 3 10l4 9 5-1c12-2 40-18 52-31 10-10 14-17 44-74l21-40q4-5-6 4M193 181c-4 9-5 11-5 19 0 9 1 11 6 22q5 11 6 19c1 8 7 22 9 22l6-11c7-14 7-19-1-35-5-10-6-13-6-18 1-5 0-8-4-17l-6-12zM179 209q-1 5-10 12-13 10-19 27l-3 10 7-5 34-22q2 0-2-11l-4-13v-3zM397 230l18 33 1-2 6-11c6-9 6-10 4-12s-27-16-34-18z"/><path d="M175 248c-37 22-47 33-47 50 0 14 10 27 23 31 7 2 23 1 28-2l4-1-6-4-10-7-6-4q-7-1-11-9t5-16l24-17 7 12q14 33 36 40 22 9 34-3c4-4 10-14 9-15l-5 1q-10 5-25 1-7-1-15-9c-6-6-9-10-17-26q-9-19-10-26l-1-6zM472 276l-15 12-8 5c0 2 6 10 8 10s7-7 11-13q1-3 4 2 3 10-4 16-12 9-23-7l-3-5-9 3-8 5c-1 1 4 10 8 15q5 5 9 7c7 4 22 5 30 2 23-7 29-36 12-55l-3-4z"/><path d="m169 283-8 7c-3 3-3 3 2 10q9 15 23 20c7 2 24 6 25 4l-3-2c-7-4-18-18-25-31l-7-12z"/></g><g fill="#947458"><path d="m309 109-89 167c-4 4-4 6 3 14q16 17 39 6c8-4 12-8 25-33l8-16h66l19 35 20 39c2 4 2 4 15 4h13l-2-3-105-198-10-19zm25 86 15 30-33 1h-34l-3 3-27 50q-6 4-8 2l7-14 32-62 27-51c1-3 1-3 24 41"/><path d="m298 193-14 26h13l13-1h1l13 1 14-1-14-26-13-25zM333 256l35 67q0 3 13 2l11-1-17-35-18-33-12-1z"/></g><g fill="#b8bbc0"><path d="M1826 42c-6 2-14 13-14 19 0 7 6 18 11 21q13 6 25-5 8-6 7-15c0-15-15-26-29-20M1098 88v47l-10-7q-21-13-47-13c-40 0-73 19-90 54-26 52-5 118 44 142 31 16 73 13 97-6l8-7v20h56V42h-58zm-26 81q12 6 18 17c7 10 7 13 7 31 0 22-4 33-15 43-18 17-53 15-69-4a51 51 0 0 1-13-38c0-42 36-67 72-49M750 69 641 316c-1 2 6 2 32 2l32-1 11-27 11-27h60l60 1 11 27 11 27h33l33-1-40-88-58-129-18-42-32-1h-32zm49 81 19 46 8 18h-79l19-46 20-47c1 0 7 13 13 29M1388 59c0 3 43 134 65 197l22 62h33l12-34 61-180 14 40 37 107 23 66 18 1c17 0 17 0 19-6l85-253q-1-2-16-1h-16l-36 109-37 108-18-50-37-110-20-58-15 1h-16l-35 102-36 108c-2 6-7-6-39-102l-36-109h-16q-15 0-16 2M1254 118q-41 9-53 35c-13 24-6 54 13 67 14 10 26 14 59 20 26 4 33 6 37 11q10 10-3 20c-14 9-58 5-84-7l-15-6c-2 0-19 38-18 40 2 4 27 14 45 18 16 4 24 5 49 4 31-1 46-5 62-16 28-18 34-58 13-82-11-12-24-17-55-23-40-8-49-11-52-17q-4-14 12-20c17-6 51-2 72 8l9 4 9-21 9-21-6-3c-24-12-75-18-103-11M1918 121c-1 0-2 45-2 99v98h33v-59c0-67 2-75 15-90q12-16 41-19c7 0 14-2 13-3v-28h-10c-21 0-48 13-57 27l-4 7v-16c0-16 0-16-6-16l-14-1q-7-1-9 1M2112 122c-25 8-48 27-59 48-26 50-5 117 43 139 19 9 34 12 59 11 23-1 39-6 56-18 15-10 16-13 7-25l-8-10-9 8a76 76 0 0 1-53 17q-48 1-67-38c-13-27-21-24 74-24 70 0 82-1 83-4 1-1 0-11-1-21-5-36-28-68-57-79-16-7-54-8-68-4m54 28c20 7 35 27 41 49l1 6h-135l1-7c5-21 24-43 43-49 15-4 36-4 49 1M1819 122l-1 99 1 97h31V121h-15z"/></g></svg>